<?xml version="1.0" standalone="no"?><!DOCTYPE svg PUBLIC "-//W3C//DTD SVG 1.1//EN" "http://www.w3.org/Graphics/SVG/1.1/DTD/svg11.dtd"><svg t="1639808053709" class="icon" viewBox="0 0 3343 1024" version="1.1" xmlns="http://www.w3.org/2000/svg" p-id="9021" xmlns:xlink="http://www.w3.org/1999/xlink" width="104.46875" height="32"><defs><style type="text/css"></style></defs><path d="M0 884.680272s69.659864-125.387755 160.217687-271.673469l160.217687-271.67347 181.115646-153.2517C606.040816 104.489796 682.666667 34.829932 689.632653 34.829932v6.965986C689.632653 48.761905 599.07483 236.843537 487.619048 466.721088l-195.047619 417.959184H0z m2744.598639 0V487.619048h62.693878v83.591836s0-6.965986 6.965986-6.965986c6.965986-20.897959 20.897959-41.795918 34.829932-55.727891 13.931973-13.931973 34.829932-20.897959 48.761905-27.863946h20.897959c13.931973 0 20.897959 0 27.863946 6.965987v62.693877l-6.965986-6.965986c-13.931973-6.965986-27.863946-6.965986-41.795919-6.965987-13.931973 0-13.931973 0-27.863945 6.965987s-27.863946 20.897959-41.795919 34.829932c-13.931973 20.897959-20.897959 48.761905-27.863945 76.62585v229.877551h-55.727892z m-870.748299-13.931973v-6.965986l118.421769-160.217687 118.421769-160.217687h-208.979592V487.619048h306.503401v20.897959L2089.795918 668.734694c-62.693878 90.557823-118.421769 160.217687-118.421768 160.217687h236.843537v55.727891H1880.816327c-6.965986 0-6.965986-13.931973-6.965987-13.931973z m-174.14966-202.013605s-20.897959-55.727891-41.795918-118.421769c-41.795918-118.421769-48.761905-125.387755-48.761905-146.285714 0-6.965986 0-6.965986-6.965986 0 0 6.965986-6.965986 20.897959-6.965987 27.863945 0 6.965986-20.897959 55.727891-41.795918 125.387756-20.897959 62.693878-41.795918 118.421769-41.795918 118.421768h97.523809c48.761905-6.965986 90.557823-6.965986 90.557823-6.965986z m-341.333333 215.945578s48.761905-125.387755 104.489796-278.639456l104.489796-278.639455h69.659864v6.965986c6.965986 20.897959 215.945578 543.346939 215.945578 543.346939h-69.659864l-27.863946-76.625851-27.863945-76.62585h-236.843538s-13.931973 34.829932-27.863945 76.62585l-27.863946 76.625851H1393.197279c-27.863946 6.965986-34.829932 6.965986-34.829932 6.965986zM3274.013605 640.870748c0-34.829932-13.931973-69.659864-34.829932-83.591836-13.931973-13.931973-27.863946-20.897959-48.761904-20.89796h-41.795919c-20.897959 6.965986-34.829932 13.931973-55.727891 27.863946-13.931973 13.931973-27.863946 34.829932-34.829932 55.727891 0 6.965986-6.965986 20.897959-6.965986 27.863946l222.911564-6.965987c0 6.965986 0 0 0 0z m-125.387755 250.775511c-27.863946 0-55.727891-13.931973-76.62585-20.89796-48.761905-27.863946-76.62585-76.62585-83.591837-139.319728v-69.659864c6.965986-41.795918 20.897959-83.591837 48.761905-111.455782l27.863946-27.863945c20.897959-13.931973 41.795918-27.863946 69.659864-34.829932 13.931973 0 41.795918-6.965986 55.727891 0 41.795918 6.965986 76.62585 20.897959 104.489796 48.761904 27.863946 27.863946 41.795918 69.659864 41.795918 125.387755v48.761905h-278.639456v6.965987c0 20.897959 6.965986 41.795918 13.931973 55.727891 6.965986 13.931973 20.897959 34.829932 27.863946 41.795918 20.897959 13.931973 41.795918 27.863946 69.659864 27.863946h48.761904c34.829932-6.965986 62.693878-20.897959 90.557823-34.829932l6.965987-6.965987v55.727892l-6.965987 6.965986c-27.863946 20.897959-62.693878 27.863946-97.523809 34.829932-13.931973-6.965986-48.761905-6.965986-62.693878-6.965986z m-738.394557 0c-69.659864-6.965986-118.421769-48.761905-125.387756-125.387756V487.619048h62.693878v257.741496c6.965986 34.829932 13.931973 55.727891 27.863946 69.659864 13.931973 13.931973 27.863946 20.897959 41.795918 20.897959h41.795918c20.897959-6.965986 34.829932-13.931973 48.761905-27.863945 13.931973-13.931973 27.863946-34.829932 34.829932-62.693878V487.619048h62.693878v397.061224h-62.693878v-34.829932-27.863945l-6.965986 6.965986c-13.931973 20.897959-27.863946 41.795918-48.761905 48.761905-20.897959 13.931973-41.795918 13.931973-76.62585 13.931973z m-1839.020409 41.795918c160.217687-27.863946 292.571429-48.761905 292.571429-48.761905l-153.251701-174.14966C633.904762 606.040816 564.244898 529.414966 564.244898 529.414966l153.251701-424.92517s104.489796 181.115646 257.741496 438.857143l257.741497 438.857143v6.965986H278.639456l292.571428-55.727891z" fill="#0087FF" p-id="9022"></path></svg>