<?xml version="1.0" standalone="no"?><!DOCTYPE svg PUBLIC "-//W3C//DTD SVG 1.1//EN" "http://www.w3.org/Graphics/SVG/1.1/DTD/svg11.dtd"><svg t="1639807439330" class="icon" viewBox="0 0 1024 1024" version="1.1" xmlns="http://www.w3.org/2000/svg" p-id="4061" xmlns:xlink="http://www.w3.org/1999/xlink" width="32" height="32"><defs><style type="text/css"></style></defs><path d="M812.916364 876.916364a455.936 455.936 0 0 1-376.552728 91.229091 456.96 456.96 0 0 1-311.156363-230.865455l148.014545-121.018182c28.16 74.938182 87.738182 133.585455 163.141818 160.349091 75.403636 26.763636 158.72 18.850909 227.84-21.410909l148.712728 121.716364z m0 0" fill="#28B446" p-id="4062"></path><path d="M818.501818 169.890909l-147.781818 121.018182a271.127273 271.127273 0 0 0-234.356364-25.367273 270.894545 270.894545 0 0 0-165.701818 167.563637l-148.712727-121.716364c63.534545-122.647273 179.2-209.92 314.414545-237.381818C571.810909 46.545455 712.378182 81.687273 818.501818 169.890909z m0 0" fill="#F14336" p-id="4063"></path><path d="M125.44 737.28l147.781818-121.018182c-22.109091-58.88-23.04-123.810909-2.56-183.389091l-148.712727-121.716363a456.96 456.96 0 0 0 3.490909 426.123636z m0 0" fill="#FBBB00" p-id="4064"></path><path d="M975.592727 435.898182H537.367273v180.596363h243.898182c-21.876364 58.414545-63.301818 107.287273-117.061819 138.938182l148.712728 121.716364a457.355636 457.355636 0 0 0 162.676363-441.250909z m0 0" fill="#518EF8" p-id="4065"></path></svg>