<?xml version="1.0" standalone="no"?><!DOCTYPE svg PUBLIC "-//W3C//DTD SVG 1.1//EN" "http://www.w3.org/Graphics/SVG/1.1/DTD/svg11.dtd"><svg t="1639809489147" class="icon" viewBox="0 0 1349 1024" version="1.1" xmlns="http://www.w3.org/2000/svg" p-id="10593" xmlns:xlink="http://www.w3.org/1999/xlink" width="42.15625" height="32"><defs><style type="text/css"></style></defs><path d="M1349.154275 439.693426H858.418296v-125.606263H1349.154275v125.606263z" fill="#E669A2" p-id="10594"></path><path d="M1285.413482 439.693426H858.418296V125.540154h426.995186v314.153272z" fill="#F3BE26" p-id="10595"></path><path d="M1109.002116 439.693426H858.418296V0h250.58382v439.693426z" fill="#EE9C34" p-id="10596"></path><path d="M1158.300213 439.693426H858.418296V49.061995h299.881917v390.631431z" fill="#F3BC87" p-id="10597"></path><path d="M858.349489 49.136199v390.516752h250.625644V49.136199H858.349489z" fill="#E3721C" p-id="10598"></path><path d="M607.14101 439.693426h251.277286v62.809877H607.14101v-62.809877z" fill="#AD1B02" p-id="10599"></path><path d="M858.349489 125.471348v314.181603h300.095084V125.471348H858.349489z" fill="#E88D14" p-id="10600"></path><path d="M858.349489 125.471348v314.181603h250.625644V125.471348H858.349489z" fill="#D85604" p-id="10601"></path><path d="M1015.121216 439.693426H858.418296V251.134275h156.70292v188.559151z" fill="#C14303" p-id="10602"></path><path d="M858.349489 314.176207v125.476744h427.208352v-125.476744H858.349489z" fill="#DB4E18" p-id="10603"></path><path d="M858.349489 314.176207v125.476744h300.095084v-125.476744H858.349489z" fill="#D1390D" p-id="10604"></path><path d="M858.349489 314.176207v125.476744h250.625644v-125.476744H858.349489z" fill="#C22303" p-id="10605"></path><path d="M858.349489 314.176207v125.476744h156.926879v-125.476744H858.349489z" fill="#AD1B02" p-id="10606"></path><path d="M913.053647 676.262231c-42.75335 7.601135-65.555406 39.903936-65.555406 95.959947 0 57.007165 30.401842 95.011492 75.0575 95.011492 21.852252 0 40.853741-7.601135 80.757676-27.553778v46.556616c-48.454876 22.800707-76.958458 28.502233-114.961435 28.502233-42.754699 0-73.160589-10.450549-96.91245-36.103368-24.703015-24.704364-38.004327-57.007165-38.004327-94.063036 0-80.757677 60.806383-136.813688 149.166544-136.813688 57.956969 0 98.812059 27.553778 98.812059 66.507909 0 25.652819-19.004187 43.705853-46.556615 43.705853-14.251117 0-25.654169-4.750372-41.804895-13.302661M699.280152 784.573686c38.954131-48.454876 53.206597-68.407518 53.206598-92.160729s-19.002838-44.657007-45.605462-44.657006c-15.20227 0-29.452038 8.552289-36.103369 16.153424v99.760514L607.119424 849.179287v-193.819503h-60.806383l-100.713018 166.269773v-166.269773h-34.205108l-92.160729 20.903796v23.751861l50.355834 4.749024v206.175058h63.657147l96.9111-159.618443v159.618443h71.258282M126.364488 878.635373h14.251116c51.30429 0 79.807872-31.354345 79.807872-94.063036 0-52.254094-22.800707-80.757677-65.558104-80.757677-5.700177 0-14.251117 0.949805-28.502233 3.800568v171.018795h0.001349z m0 112.112022l41.803545 9.500744v23.751861H3.800568v-23.751861l38.002977-9.500744V703.813311H0v-23.751861l99.760515-30.403192h26.605322v34.205109c46.553917-28.503582 62.705992-33.253955 87.407658-33.253955 55.107556 0 96.911101 51.305639 96.911101 122.565269 0 81.70883-56.056011 137.764841-141.566758 137.764842-9.500744 0-25.652819-0.949805-42.75335-1.89961" p-id="10607"></path></svg>