<svg width="109.656" height="32" viewBox="0 0 3509 1024" xmlns="http://www.w3.org/2000/svg" xmlns:xlink="http://www.w3.org/1999/xlink" overflow="hidden"><defs></defs><path d="M2684.35 337.013 2353.82 337.013 2353.82 382.38 2457.52 382.38 2457.52 563.848 2334.38 563.848 2334.38 615.696 2457.52 615.696 2457.52 907.342 2509.37 907.342 2509.37 615.696 2638.99 615.696 2638.99 900.861 2742.68 900.861 2742.68 849.013 2697.32 849.013 2697.32 337.013 2684.35 337.013ZM2509.37 557.367 2509.37 382.38 2638.99 382.38 2638.99 563.848 2509.37 563.848 2509.37 557.367ZM1757.57 771.241 2023.29 771.241 2023.29 823.088 1757.57 823.088 1757.57 771.241ZM1569.62 680.506C1569.62 771.241 1563.14 836.05 1543.7 894.379 1543.7 900.861 1543.7 900.861 1550.18 900.861L1602.02 900.861C1621.47 816.607 1621.47 751.798 1621.47 699.949L1692.76 699.949 1692.76 849.013 1647.39 849.013C1640.91 849.013 1640.91 849.013 1640.91 855.493L1653.87 900.861 1744.61 900.861 1744.61 337.013 1576.1 337.013 1569.62 680.506ZM1627.95 661.063 1627.95 544.405 1699.24 544.405 1699.24 667.544 1627.95 667.544 1627.95 661.063ZM1692.76 382.38 1692.76 499.038 1621.47 499.038 1621.47 382.38 1692.76 382.38Z" fill="#56606F"/><path d="M2042.73 537.924 2107.54 537.924 2107.54 492.557 1919.59 492.557C1919.59 479.595 1919.59 460.152 1932.56 447.19L2101.06 447.19 2101.06 401.823 2055.7 401.823C2062.18 375.899 2075.14 343.494 2075.14 343.494 2075.14 337.013 2075.14 337.013 2068.66 337.013L2029.77 337.013 2010.33 401.823 1952 401.823C1958.48 375.899 1958.48 349.974 1964.96 317.57 1964.96 311.088 1964.96 311.088 1958.48 311.088L1919.59 311.088C1913.11 343.494 1913.11 375.899 1900.15 401.823L1867.75 401.823 1848.3 337.013 1809.42 337.013C1802.94 337.013 1802.94 337.013 1802.94 343.494 1802.94 349.975 1809.42 375.899 1822.38 401.823L1777.01 401.823 1777.01 447.19 1887.19 447.19C1880.71 460.152 1880.71 479.595 1867.75 492.557L1764.05 492.557 1764.05 537.924 1841.82 537.924C1809.42 583.291 1777.01 602.734 1764.05 609.215L1764.05 661.063C1764.05 667.544 1770.53 667.544 1770.53 661.063 1789.97 667.544 1802.94 648.101 1815.9 635.139L2003.85 635.139 2003.85 706.43 1854.78 706.43 1861.27 667.544C1861.27 661.063 1861.27 661.063 1854.78 661.063L1809.42 661.063 1802.94 745.316C1802.94 751.798 1802.94 751.798 1809.42 751.798L2062.18 751.798 2062.18 874.936 1952 874.936C1945.52 874.936 1945.52 874.936 1945.52 881.417L1958.48 926.785 2114.02 926.785 2114.02 712.912 2055.7 712.912 2055.7 602.734C2081.62 622.177 2101.06 641.62 2126.99 648.101 2133.47 654.583 2133.47 654.583 2133.47 648.101L2133.47 602.734C2107.54 596.253 2075.14 576.81 2042.73 537.924ZM1984.4 537.924C1990.89 557.367 2010.33 576.81 2023.29 589.772L1861.27 589.772C1874.23 576.81 1887.19 557.367 1900.15 537.924L1984.4 537.924ZM2386.23 738.835 2295.49 810.127 2295.49 492.557 2172.35 492.557 2172.35 544.405 2243.64 544.405 2243.64 849.013C2224.2 861.974 2211.24 868.456 2211.24 868.456L2243.64 907.342 2392.71 797.164 2386.23 738.835C2392.71 738.835 2386.23 738.835 2386.23 738.835ZM2250.13 440.709 2301.97 440.709C2308.45 440.709 2308.45 434.228 2308.45 434.228L2230.68 317.57 2178.83 317.57 2172.35 324.051C2178.83 330.531 2250.13 440.709 2250.13 440.709ZM2846.38 343.494 3267.64 343.494 3267.64 395.342 2846.38 395.342 2846.38 343.494ZM3001.92 602.734 3332.45 602.734 3332.45 550.886 2794.53 550.886 2794.53 602.734 2943.59 602.734C2911.19 686.987 2833.42 887.899 2833.42 894.379 2833.42 900.86 2833.42 900.861 2839.9 900.861L3306.53 900.861C3313.01 900.861 3313.01 894.379 3313.01 894.379L3241.72 712.912 3189.87 712.912C3183.39 712.912 3183.39 719.392 3183.39 719.392 3183.39 725.873 3235.24 849.013 3235.24 849.013L2924.15 849.013C2917.67 842.531 3001.92 602.734 3001.92 602.734Z" fill="#56606F"/><path d="M1219.65 836.05C1200.2 855.493 1154.83 894.379 1070.58 894.379L590.987 894.379C740.05 751.798 856.708 628.658 869.671 622.177 882.633 609.215 908.557 583.291 934.48 563.848 986.329 505.519 1031.7 499.038 1077.06 499.038 1135.39 499.038 1180.76 518.481 1219.65 557.367 1297.42 628.658 1297.42 764.759 1219.65 836.05ZM1316.86 466.633C1258.53 408.304 1174.28 362.937 1090.02 362.937 1005.77 362.937 940.962 395.342 882.633 434.228 863.19 453.671 824.304 479.595 798.379 518.481 765.974 537.924 286.38 1024 286.38 1024L992.809 1024C1038.18 1024 1077.06 1024 1102.99 1017.52 1174.28 1011.04 1252.05 978.633 1310.38 926.785 1433.52 797.164 1433.52 589.772 1316.86 466.633Z" fill="#00A3FF"/><path d="M519.696 434.228C454.886 388.861 396.557 369.417 318.785 369.417 228.051 369.417 143.798 408.304 91.9498 473.114-31.1896 602.734-31.1896 810.127 98.4302 939.747 150.279 991.594 208.608 1017.52 273.417 1017.52L403.038 894.379 331.747 894.379C260.456 887.899 215.088 861.974 182.684 836.05 104.912 758.278 104.912 635.139 182.684 550.886 221.57 512 260.456 492.557 325.266 492.557 364.152 492.557 403.038 499.038 454.886 550.886 474.329 576.81 532.658 615.696 552.101 641.62L558.582 641.62 636.355 550.886C610.43 518.481 545.62 466.633 519.696 434.228" fill="#00C8DC"/><path d="M1109.47 285.165C1051.14 116.658 882.633 0 701.164 0 480.81 0 305.823 162.026 266.937 369.417 279.899 369.417 299.342 362.937 318.785 362.937 338.228 362.937 370.633 369.417 390.076 369.417 422.481 226.836 545.62 129.621 688.202 129.621 811.342 129.621 921.519 200.912 973.366 311.088 973.366 311.088 979.848 317.57 979.848 311.088 1025.22 304.608 1070.58 285.165 1109.47 285.165 1109.47 298.127 1109.47 298.127 1109.47 285.165" fill="#006EFF"/></svg>